<svg xmlns="http://www.w3.org/2000/svg" xmlns:xlink="http://www.w3.org/1999/xlink" width="1024" zoomAndPan="magnify" viewBox="0 0 768 767.999994" height="1024" preserveAspectRatio="xMidYMid meet" version="1.0"><defs><g/><clipPath id="df60f2120d"><path d="M 36 0 L 732 0 C 741.546875 0 750.703125 3.792969 757.457031 10.542969 C 764.207031 17.296875 768 26.453125 768 36 L 768 732 C 768 751.882812 751.882812 768 732 768 L 36 768 C 26.453125 768 17.296875 764.207031 10.542969 757.457031 C 3.792969 750.703125 0 741.546875 0 732 L 0 36 C 0 26.453125 3.792969 17.296875 10.542969 10.542969 C 17.296875 3.792969 26.453125 0 36 0 Z M 36 0 " clip-rule="nonzero"/></clipPath><clipPath id="72e935cca4"><path d="M 0 0 L 768 0 L 768 768 L 0 768 Z M 0 0 " clip-rule="nonzero"/></clipPath><clipPath id="ad29111bdf"><path d="M 36 0 L 732 0 C 741.546875 0 750.703125 3.792969 757.457031 10.542969 C 764.207031 17.296875 768 26.453125 768 36 L 768 732 C 768 751.882812 751.882812 768 732 768 L 36 768 C 26.453125 768 17.296875 764.207031 10.542969 757.457031 C 3.792969 750.703125 0 741.546875 0 732 L 0 36 C 0 26.453125 3.792969 17.296875 10.542969 10.542969 C 17.296875 3.792969 26.453125 0 36 0 Z M 36 0 " clip-rule="nonzero"/></clipPath><clipPath id="470becec41"><rect x="0" width="768" y="0" height="768"/></clipPath><clipPath id="fc68046f73"><path d="M 75.820312 75.820312 L 692.179688 75.820312 L 692.179688 692.179688 L 75.820312 692.179688 Z M 75.820312 75.820312 " clip-rule="nonzero"/></clipPath><clipPath id="dee26e1310"><path d="M 384 75.820312 C 213.796875 75.820312 75.820312 213.796875 75.820312 384 C 75.820312 554.203125 213.796875 692.179688 384 692.179688 C 554.203125 692.179688 692.179688 554.203125 692.179688 384 C 692.179688 213.796875 554.203125 75.820312 384 75.820312 Z M 384 75.820312 " clip-rule="nonzero"/></clipPath><clipPath id="e7a72893e9"><path d="M 0.820312 0.820312 L 617.179688 0.820312 L 617.179688 617.179688 L 0.820312 617.179688 Z M 0.820312 0.820312 " clip-rule="nonzero"/></clipPath><clipPath id="31f24bdc2c"><path d="M 309 0.820312 C 138.796875 0.820312 0.820312 138.796875 0.820312 309 C 0.820312 479.203125 138.796875 617.179688 309 617.179688 C 479.203125 617.179688 617.179688 479.203125 617.179688 309 C 617.179688 138.796875 479.203125 0.820312 309 0.820312 Z M 309 0.820312 " clip-rule="nonzero"/></clipPath><clipPath id="aabd97ce41"><rect x="0" width="618" y="0" height="618"/></clipPath></defs><g clip-path="url(#df60f2120d)"><g transform="matrix(1, 0, 0, 1, 0, -0.000000000000057351)"><g clip-path="url(#470becec41)"><g clip-path="url(#72e935cca4)"><g clip-path="url(#ad29111bdf)"><rect x="-168.96" width="1105.92" fill="#669bbc" height="1105.919991" y="-168.959999" fill-opacity="1"/></g></g></g></g></g><g clip-path="url(#fc68046f73)"><g clip-path="url(#dee26e1310)"><g transform="matrix(1, 0, 0, 1, 75, 75)"><g clip-path="url(#aabd97ce41)"><g clip-path="url(#e7a72893e9)"><g clip-path="url(#31f24bdc2c)"><path fill="#fdf0d5" d="M 0.820312 0.820312 L 617.179688 0.820312 L 617.179688 617.179688 L 0.820312 617.179688 Z M 0.820312 0.820312 " fill-opacity="1" fill-rule="nonzero"/></g></g></g></g></g></g><g fill="#c1121f" fill-opacity="1"><g transform="translate(167.12544, 554.624993)"><g><path d="M 364.484375 0.484375 C 335.648438 0.484375 321.234375 -2.753906 321.234375 -9.234375 L 311.03125 -204.109375 L 251.734375 -6.796875 C 250.441406 -2.910156 239.425781 -0.96875 218.6875 -0.96875 C 197.957031 -0.96875 187.269531 -2.75 186.625 -6.3125 L 125.390625 -206.0625 L 118.578125 -12.15625 C 118.253906 -7.289062 112.097656 -3.96875 100.109375 -2.1875 C 88.117188 -0.40625 78.15625 0.484375 70.21875 0.484375 C 62.28125 0.484375 54.585938 0 47.140625 -0.96875 C 31.585938 -3.238281 23.972656 -7.289062 24.296875 -13.125 L 35.484375 -329.015625 C 35.484375 -336.785156 55.242188 -340.671875 94.765625 -340.671875 C 106.429688 -340.671875 120.6875 -339.78125 137.53125 -338 C 154.382812 -336.21875 163.78125 -332.734375 165.71875 -327.546875 L 220.15625 -174.46875 L 267.78125 -328.046875 C 270.695312 -336.460938 293.050781 -340.671875 334.84375 -340.671875 C 346.832031 -340.671875 361.164062 -339.78125 377.84375 -338 C 394.53125 -336.21875 402.875 -333.0625 402.875 -328.53125 L 416.96875 -9.71875 C 416.96875 -6.15625 410.648438 -3.5625 398.015625 -1.9375 C 385.378906 -0.320312 374.203125 0.484375 364.484375 0.484375 Z M 364.484375 0.484375 "/></g></g></g></svg>